<?xml version="1.0" standalone="no"?>
<!DOCTYPE svg PUBLIC "-//W3C//DTD SVG 20010904//EN"
 "http://www.w3.org/TR/2001/REC-SVG-20010904/DTD/svg10.dtd">
<svg version="1.0" xmlns="http://www.w3.org/2000/svg"
 width="512.000000pt" height="512.000000pt" viewBox="0 0 512.000000 512.000000"
 preserveAspectRatio="xMidYMid meet">
<metadata>
Created by potrace 1.16, written by Peter Selinger 2001-2019
</metadata>
<g transform="translate(0.000000,512.000000) scale(0.100000,-0.100000)"
fill="#000000" stroke="none">
<path d="M2424 3540 c-118 -17 -171 -46 -311 -163 -90 -76 -105 -84 -152 -90
-84 -10 -177 -61 -257 -141 -138 -137 -183 -298 -138 -486 16 -64 16 -73 0
-128 -20 -71 -21 -208 -2 -279 23 -87 68 -164 137 -238 93 -98 201 -159 319
-179 24 -5 64 -31 125 -82 49 -41 112 -85 140 -98 106 -51 240 -56 354 -14 95
36 371 255 371 295 0 5 48 49 106 97 118 99 174 163 215 250 43 90 51 150 47
330 -4 184 -13 214 -84 253 -35 20 -53 23 -164 23 -133 0 -150 -5 -150 -46 0
-37 23 -46 116 -45 121 2 152 -5 175 -43 18 -28 20 -47 17 -186 -3 -152 -4
-156 -36 -224 -25 -54 -51 -88 -115 -148 -45 -43 -85 -78 -89 -78 -3 0 -6 14
-6 30 1 19 -6 36 -18 45 -26 20 -40 19 -64 -5 -16 -16 -20 -33 -20 -89 l0 -69
-46 -41 c-26 -23 -91 -74 -145 -116 -111 -83 -166 -105 -266 -105 -89 0 -163
29 -253 99 -76 59 -77 59 -167 69 -118 12 -202 50 -284 128 -71 69 -134 184
-144 267 -8 62 8 154 36 209 l19 38 -27 62 c-23 53 -27 78 -27 153 -1 81 2 97
31 158 65 137 195 237 329 252 59 7 65 11 145 82 109 98 170 138 244 159 80
23 185 15 261 -20 55 -25 241 -170 300 -235 28 -29 38 -34 84 -35 45 -2 56 -6
81 -34 42 -47 38 -61 -16 -60 -51 1 -75 -14 -75 -48 0 -36 31 -46 148 -44 173
3 168 4 213 -37 47 -42 69 -86 69 -136 0 -39 15 -57 47 -57 32 0 43 33 32 98
-19 124 -127 222 -243 222 -28 0 -34 5 -45 36 -26 72 -99 132 -181 149 -19 4
-51 22 -70 40 -46 42 -245 192 -279 209 -80 40 -199 60 -287 46z"/>
<path d="M2404 2951 c-106 -27 -225 -127 -272 -228 -23 -50 -27 -71 -27 -153
0 -84 3 -102 29 -157 35 -77 123 -163 203 -201 72 -33 189 -37 268 -9 111 38
217 153 251 272 23 80 11 243 -17 233 -5 -2 -80 -67 -168 -145 -97 -87 -168
-143 -180 -143 -24 0 -187 134 -194 159 -7 29 6 46 91 125 58 52 91 76 109 76
15 0 45 -17 76 -45 29 -25 56 -45 62 -45 5 0 43 31 84 68 l73 67 -58 44 c-87
64 -137 84 -224 87 -41 2 -89 0 -106 -5z"/>
</g>
</svg>